<svg xmlns="http://www.w3.org/2000/svg" width="533" height="753" viewBox="0 0 533 753"><rect width="533" height="753" fill="#EFE7D9"/><defs><filter id="sh" x="-10%" y="-10%" width="120%" height="130%"><feDropShadow dx="0" dy="4" stdDeviation="5" flood-color="#3b2a1e" flood-opacity=".22"/></filter></defs><g transform="translate(18,16)" filter="url(#sh)"><rect width="240" height="135" rx="7" fill="#FFFFFF"/><rect x="0" y="0" width="7" height="135" fill="#3B82F6"/><text x="22" y="62" font-size="17" font-weight="800" fill="#1F3A5F" text-anchor="start" font-family="'Pretendard Variable',Pretendard,'Malgun Gothic',sans-serif">이차함수의 그래프</text><rect x="22" y="70" width="40" height="3" fill="#3B82F6"/><text x="22" y="88" font-size="8.5" font-weight="500" fill="rgba(0,0,0,.55)" text-anchor="start" font-family="'Pretendard Variable',Pretendard,'Malgun Gothic',sans-serif">중3 수학 · 개념과 예제</text><text x="22" y="118" font-size="7" font-weight="600" fill="rgba(0,0,0,.55)" text-anchor="start" font-family="'Pretendard Variable',Pretendard,'Malgun Gothic',sans-serif">y = a(x−p)² + q</text><text x="232" y="130" font-size="6" fill="rgba(0,0,0,.55)" text-anchor="end" font-family="'Pretendard Variable',Pretendard,'Malgun Gothic',sans-serif">1</text></g><g transform="translate(275,16)" filter="url(#sh)"><rect width="240" height="135" rx="7" fill="#FFFFFF"/><text x="14" y="20" font-size="11" font-weight="800" fill="#1F3A5F" text-anchor="start" font-family="'Pretendard Variable',Pretendard,'Malgun Gothic',sans-serif">학습 목표</text><rect x="14" y="25" width="212" height="1.2" fill="#3B82F6"/><rect x="14" y="35" width="212" height="19" rx="4" fill="rgba(0,0,0,.06)"/><circle cx="25" cy="44.5" r="6.5" fill="#3B82F6"/><text x="25" y="47.3" font-size="7.5" font-weight="800" fill="#fff" text-anchor="middle" font-family="'Pretendard Variable',Pretendard,'Malgun Gothic',sans-serif">1</text><text x="37" y="47.5" font-size="8" font-weight="600" fill="#1F3A5F" text-anchor="start" font-family="'Pretendard Variable',Pretendard,'Malgun Gothic',sans-serif">y = ax²의 그래프를 그릴 수 있다</text><rect x="14" y="59" width="212" height="19" rx="4" fill="rgba(0,0,0,.06)"/><circle cx="25" cy="68.5" r="6.5" fill="#3B82F6"/><text x="25" y="71.3" font-size="7.5" font-weight="800" fill="#fff" text-anchor="middle" font-family="'Pretendard Variable',Pretendard,'Malgun Gothic',sans-serif">2</text><text x="37" y="71.5" font-size="8" font-weight="600" fill="#1F3A5F" text-anchor="start" font-family="'Pretendard Variable',Pretendard,'Malgun Gothic',sans-serif">평행이동과 꼭짓점의 관계를 안다</text><rect x="14" y="83" width="212" height="19" rx="4" fill="rgba(0,0,0,.06)"/><circle cx="25" cy="92.5" r="6.5" fill="#3B82F6"/><text x="25" y="95.3" font-size="7.5" font-weight="800" fill="#fff" text-anchor="middle" font-family="'Pretendard Variable',Pretendard,'Malgun Gothic',sans-serif">3</text><text x="37" y="95.5" font-size="8" font-weight="600" fill="#1F3A5F" text-anchor="start" font-family="'Pretendard Variable',Pretendard,'Malgun Gothic',sans-serif">그래프를 보고 식을 구할 수 있다</text><text x="232" y="130" font-size="6" fill="rgba(0,0,0,.55)" text-anchor="end" font-family="'Pretendard Variable',Pretendard,'Malgun Gothic',sans-serif">2</text></g><g transform="translate(18,167)" filter="url(#sh)"><rect width="240" height="135" rx="7" fill="#FFFFFF"/><text x="14" y="20" font-size="11" font-weight="800" fill="#1F3A5F" text-anchor="start" font-family="'Pretendard Variable',Pretendard,'Malgun Gothic',sans-serif">공식 유도 흐름</text><rect x="14" y="25" width="212" height="1.2" fill="#3B82F6"/><rect x="14.0" y="52" width="44.0" height="34" rx="6" fill="#3B82F6" stroke="#3B82F6" stroke-width="1"/><text x="36.0" y="72.0" font-size="8" font-weight="800" fill="#fff" text-anchor="middle" font-family="'Pretendard Variable',Pretendard,'Malgun Gothic',sans-serif">y = ax²</text><path d="M59.0,69.0 l9,0 m-3,-3 l3,3 l-3,3" stroke="#3B82F6" stroke-width="1.6" fill="none"/><rect x="70.0" y="52" width="44.0" height="34" rx="6" fill="rgba(0,0,0,.06)" stroke="#3B82F6" stroke-width="1"/><text x="92.0" y="72.0" font-size="8" font-weight="800" fill="#1F3A5F" text-anchor="middle" font-family="'Pretendard Variable',Pretendard,'Malgun Gothic',sans-serif">x축 방향 p</text><path d="M115.0,69.0 l9,0 m-3,-3 l3,3 l-3,3" stroke="#3B82F6" stroke-width="1.6" fill="none"/><rect x="126.0" y="52" width="44.0" height="34" rx="6" fill="rgba(0,0,0,.06)" stroke="#3B82F6" stroke-width="1"/><text x="148.0" y="72.0" font-size="8" font-weight="800" fill="#1F3A5F" text-anchor="middle" font-family="'Pretendard Variable',Pretendard,'Malgun Gothic',sans-serif">y축 방향 q</text><path d="M171.0,69.0 l9,0 m-3,-3 l3,3 l-3,3" stroke="#3B82F6" stroke-width="1.6" fill="none"/><rect x="182.0" y="52" width="44.0" height="34" rx="6" fill="rgba(0,0,0,.06)" stroke="#3B82F6" stroke-width="1"/><text x="204.0" y="72.0" font-size="8" font-weight="800" fill="#1F3A5F" text-anchor="middle" font-family="'Pretendard Variable',Pretendard,'Malgun Gothic',sans-serif">y=a(x−p)²+q</text><text x="36.0" y="100" font-size="6.8" font-weight="500" fill="rgba(0,0,0,.55)" text-anchor="middle" font-family="'Pretendard Variable',Pretendard,'Malgun Gothic',sans-serif">기본형</text><text x="92.0" y="100" font-size="6.8" font-weight="500" fill="rgba(0,0,0,.55)" text-anchor="middle" font-family="'Pretendard Variable',Pretendard,'Malgun Gothic',sans-serif">오른쪽으로</text><text x="148.0" y="100" font-size="6.8" font-weight="500" fill="rgba(0,0,0,.55)" text-anchor="middle" font-family="'Pretendard Variable',Pretendard,'Malgun Gothic',sans-serif">위로</text><text x="204.0" y="100" font-size="6.8" font-weight="500" fill="rgba(0,0,0,.55)" text-anchor="middle" font-family="'Pretendard Variable',Pretendard,'Malgun Gothic',sans-serif">표준형</text><rect x="14" y="112" width="212" height="12" rx="3" fill="rgba(0,0,0,.06)"/><text x="120.0" y="120.5" font-size="6.5" font-weight="600" fill="rgba(0,0,0,.55)" text-anchor="middle" font-family="'Pretendard Variable',Pretendard,'Malgun Gothic',sans-serif">읽는 순서: 왼쪽 → 오른쪽</text><text x="232" y="130" font-size="6" fill="rgba(0,0,0,.55)" text-anchor="end" font-family="'Pretendard Variable',Pretendard,'Malgun Gothic',sans-serif">3</text></g><g transform="translate(275,167)" filter="url(#sh)"><rect width="240" height="135" rx="7" fill="#FFFFFF"/><text x="14" y="20" font-size="11" font-weight="800" fill="#1F3A5F" text-anchor="start" font-family="'Pretendard Variable',Pretendard,'Malgun Gothic',sans-serif">그래프 비교</text><rect x="14" y="25" width="212" height="1.2" fill="#3B82F6"/><line x1="30" y1="112" x2="210" y2="112" stroke="rgba(0,0,0,.55)" stroke-width=".8"/><line x1="120" y1="34" x2="120" y2="118" stroke="rgba(0,0,0,.55)" stroke-width=".8"/><polyline points="60.2,37.9 62.8,44.2 65.4,50.3 68.0,56.0 70.6,61.5 73.2,66.6 75.8,71.5 78.4,76.2 81.0,80.5 83.6,84.6 86.2,88.3 88.8,91.8 91.4,95.1 94.0,98.0 96.6,100.7 99.2,103.0 101.8,105.1 104.4,107.0 107.0,108.5 109.6,109.8 112.2,110.7 114.8,111.4 117.4,111.9 120.0,112.0 122.6,111.9 125.2,111.4 127.8,110.7 130.4,109.8 133.0,108.5 135.6,107.0 138.2,105.1 140.8,103.0 143.4,100.7 146.0,98.0 148.6,95.1 151.2,91.8 153.8,88.3 156.4,84.6 159.0,80.5 161.6,76.2 164.2,71.5 166.8,66.6 169.4,61.5 172.0,56.0 174.6,50.3 177.2,44.2 179.8,37.9" fill="none" stroke="#3B82F6" stroke-width="2.2"/><polyline points="99.2,38.6 101.8,43.5 104.4,48.2 107.0,52.5 109.6,56.6 112.2,60.3 114.8,63.8 117.4,67.1 120.0,70.0 122.6,72.7 125.2,75.0 127.8,77.1 130.4,79.0 133.0,80.5 135.6,81.8 138.2,82.7 140.8,83.4 143.4,83.9 146.0,84.0 148.6,83.9 151.2,83.4 153.8,82.7 156.4,81.8 159.0,80.5 161.6,79.0 164.2,77.1 166.8,75.0 169.4,72.7 172.0,70.0 174.6,67.1 177.2,63.8 179.8,60.3" fill="none" stroke="#F97316" stroke-width="1.8" stroke-dasharray="4 3"/><circle cx="120" cy="112" r="3" fill="#3B82F6"/><text x="125" y="122" font-size="7" font-weight="600" fill="rgba(0,0,0,.55)" text-anchor="start" font-family="'Pretendard Variable',Pretendard,'Malgun Gothic',sans-serif">O</text><text x="60" y="46" font-size="8" font-weight="800" fill="#3B82F6" text-anchor="start" font-family="'Pretendard Variable',Pretendard,'Malgun Gothic',sans-serif">y = x²</text><text x="160" y="60" font-size="8" font-weight="800" fill="#F97316" text-anchor="start" font-family="'Pretendard Variable',Pretendard,'Malgun Gothic',sans-serif">y = (x−1)² + 2</text><text x="226" y="130" font-size="6.5" font-weight="500" fill="rgba(0,0,0,.55)" text-anchor="end" font-family="'Pretendard Variable',Pretendard,'Malgun Gothic',sans-serif">꼭짓점 (0,0) → (1,2)</text><text x="232" y="130" font-size="6" fill="rgba(0,0,0,.55)" text-anchor="end" font-family="'Pretendard Variable',Pretendard,'Malgun Gothic',sans-serif">4</text></g><g transform="translate(18,318)" filter="url(#sh)"><rect width="240" height="135" rx="7" fill="#FFFFFF"/><text x="14" y="20" font-size="11" font-weight="800" fill="#1F3A5F" text-anchor="start" font-family="'Pretendard Variable',Pretendard,'Malgun Gothic',sans-serif">꼭짓점 · 축 비교 표</text><rect x="14" y="25" width="212" height="1.2" fill="#3B82F6"/><rect x="14" y="34" width="212" height="18" fill="#3B82F6"/><text x="20.0" y="46.5" font-size="8" font-weight="800" fill="#fff" text-anchor="start" font-family="'Pretendard Variable',Pretendard,'Malgun Gothic',sans-serif">식</text><text x="90.66666666666667" y="46.5" font-size="8" font-weight="800" fill="#fff" text-anchor="start" font-family="'Pretendard Variable',Pretendard,'Malgun Gothic',sans-serif">꼭짓점</text><text x="161.33333333333334" y="46.5" font-size="8" font-weight="800" fill="#fff" text-anchor="start" font-family="'Pretendard Variable',Pretendard,'Malgun Gothic',sans-serif">축</text><rect x="14" y="52" width="212" height="18" fill="none" stroke="rgba(0,0,0,.14)" stroke-width=".6"/><text x="20.0" y="64.5" font-size="7.8" font-weight="700" fill="#1F3A5F" text-anchor="start" font-family="'Pretendard Variable',Pretendard,'Malgun Gothic',sans-serif">y = x²</text><text x="90.66666666666667" y="64.5" font-size="7.8" font-weight="500" fill="#1F3A5F" text-anchor="start" font-family="'Pretendard Variable',Pretendard,'Malgun Gothic',sans-serif">(0, 0)</text><text x="161.33333333333334" y="64.5" font-size="7.8" font-weight="500" fill="#1F3A5F" text-anchor="start" font-family="'Pretendard Variable',Pretendard,'Malgun Gothic',sans-serif">x = 0</text><rect x="14" y="70" width="212" height="18" fill="rgba(0,0,0,.06)" stroke="rgba(0,0,0,.14)" stroke-width=".6"/><text x="20.0" y="82.5" font-size="7.8" font-weight="700" fill="#1F3A5F" text-anchor="start" font-family="'Pretendard Variable',Pretendard,'Malgun Gothic',sans-serif">y = (x−1)²</text><text x="90.66666666666667" y="82.5" font-size="7.8" font-weight="500" fill="#1F3A5F" text-anchor="start" font-family="'Pretendard Variable',Pretendard,'Malgun Gothic',sans-serif">(1, 0)</text><text x="161.33333333333334" y="82.5" font-size="7.8" font-weight="500" fill="#1F3A5F" text-anchor="start" font-family="'Pretendard Variable',Pretendard,'Malgun Gothic',sans-serif">x = 1</text><rect x="14" y="88" width="212" height="18" fill="none" stroke="rgba(0,0,0,.14)" stroke-width=".6"/><text x="20.0" y="100.5" font-size="7.8" font-weight="700" fill="#1F3A5F" text-anchor="start" font-family="'Pretendard Variable',Pretendard,'Malgun Gothic',sans-serif">y = (x−1)²+2</text><text x="90.66666666666667" y="100.5" font-size="7.8" font-weight="500" fill="#1F3A5F" text-anchor="start" font-family="'Pretendard Variable',Pretendard,'Malgun Gothic',sans-serif">(1, 2)</text><text x="161.33333333333334" y="100.5" font-size="7.8" font-weight="500" fill="#1F3A5F" text-anchor="start" font-family="'Pretendard Variable',Pretendard,'Malgun Gothic',sans-serif">x = 1</text><text x="232" y="130" font-size="6" fill="rgba(0,0,0,.55)" text-anchor="end" font-family="'Pretendard Variable',Pretendard,'Malgun Gothic',sans-serif">5</text></g><g transform="translate(275,318)" filter="url(#sh)"><rect width="240" height="135" rx="7" fill="#FFFFFF"/><text x="14" y="20" font-size="11" font-weight="800" fill="#1F3A5F" text-anchor="start" font-family="'Pretendard Variable',Pretendard,'Malgun Gothic',sans-serif">예제 1 (쉬움)</text><rect x="14" y="25" width="212" height="1.2" fill="#3B82F6"/><rect x="14" y="34" width="212" height="24" rx="5" fill="rgba(0,0,0,.06)"/><text x="22" y="50" font-size="9" font-weight="800" fill="#1F3A5F" text-anchor="start" font-family="'Pretendard Variable',Pretendard,'Malgun Gothic',sans-serif">y = 2(x+3)² − 1 의 꼭짓점은?</text><circle cx="24" cy="73" r="5" fill="none" stroke="#3B82F6" stroke-width="1"/><text x="24" y="75.5" font-size="6.5" font-weight="800" fill="#3B82F6" text-anchor="middle" font-family="'Pretendard Variable',Pretendard,'Malgun Gothic',sans-serif">①</text><text x="34" y="76" font-size="8" font-weight="500" fill="#1F3A5F" text-anchor="start" font-family="'Pretendard Variable',Pretendard,'Malgun Gothic',sans-serif">(3, −1)</text><circle cx="24" cy="88" r="5" fill="#3B82F6" stroke="#3B82F6" stroke-width="1"/><text x="24" y="90.5" font-size="6.5" font-weight="800" fill="#fff" text-anchor="middle" font-family="'Pretendard Variable',Pretendard,'Malgun Gothic',sans-serif">②</text><text x="34" y="91" font-size="8" font-weight="700" fill="#1F3A5F" text-anchor="start" font-family="'Pretendard Variable',Pretendard,'Malgun Gothic',sans-serif">(−3, −1)</text><circle cx="24" cy="103" r="5" fill="none" stroke="#3B82F6" stroke-width="1"/><text x="24" y="105.5" font-size="6.5" font-weight="800" fill="#3B82F6" text-anchor="middle" font-family="'Pretendard Variable',Pretendard,'Malgun Gothic',sans-serif">③</text><text x="34" y="106" font-size="8" font-weight="500" fill="#1F3A5F" text-anchor="start" font-family="'Pretendard Variable',Pretendard,'Malgun Gothic',sans-serif">(−3, 1)</text><circle cx="24" cy="118" r="5" fill="none" stroke="#3B82F6" stroke-width="1"/><text x="24" y="120.5" font-size="6.5" font-weight="800" fill="#3B82F6" text-anchor="middle" font-family="'Pretendard Variable',Pretendard,'Malgun Gothic',sans-serif">④</text><text x="34" y="121" font-size="8" font-weight="500" fill="#1F3A5F" text-anchor="start" font-family="'Pretendard Variable',Pretendard,'Malgun Gothic',sans-serif">(3, 1)</text><text x="232" y="130" font-size="6" fill="rgba(0,0,0,.55)" text-anchor="end" font-family="'Pretendard Variable',Pretendard,'Malgun Gothic',sans-serif">6</text></g><rect x="18" y="475" width="497" height="262" rx="10" fill="#fff" opacity=".55"/><text x="266.5" y="505" text-anchor="middle" font-size="13" font-weight="800" fill="#3b2a1e" font-family="'Pretendard Variable',Pretendard,'Malgun Gothic',sans-serif">12~14장 구성 · 학습목표 → 정의 → 공식 유도 → 함수 그래프 → 예제 3단계 → 요약</text><text x="266.5" y="527" text-anchor="middle" font-size="9.5" fill="#6b5a4a" font-family="'Pretendard Variable',Pretendard,'Malgun Gothic',sans-serif">개념 정의 상자, 평행이동 비교 표, 그래프, 단계별 유도 흐름도, 자주 하는 실수</text><text x="266.5" y="544" text-anchor="middle" font-size="9.5" fill="#6b5a4a" font-family="'Pretendard Variable',Pretendard,'Malgun Gothic',sans-serif">예제는 문제 슬라이드 다음에 풀이 슬라이드가 따로</text></svg>